<?xml version="1.0" standalone="no"?>
<!DOCTYPE svg PUBLIC "-//W3C//DTD SVG 20010904//EN"
 "http://www.w3.org/TR/2001/REC-SVG-20010904/DTD/svg10.dtd">
<svg version="1.0" xmlns="http://www.w3.org/2000/svg"
 width="260.000000pt" height="260.000000pt" viewBox="0 0 260.000000 260.000000"
 preserveAspectRatio="xMidYMid meet">
<metadata>
Created by potrace 1.11, written by Peter Selinger 2001-2013
</metadata>
<g transform="translate(0.000000,260.000000) scale(0.100000,-0.100000)"
fill="#000000" stroke="none">
<path d="M0 2390 l0 -210 390 0 390 0 0 -24 c0 -21 -6 -24 -56 -30 -72 -8
-112 -29 -120 -63 -12 -46 38 -192 300 -868 l105 -270 14 35 c8 19 70 175 137
347 l123 312 -53 143 c-107 292 -148 350 -254 363 -50 7 -56 10 -56 31 l0 24
440 0 440 0 0 -23 c0 -21 -6 -24 -80 -33 -107 -15 -134 -38 -127 -105 3 -26
88 -273 188 -549 177 -487 183 -501 195 -469 6 19 80 223 164 454 83 231 160
452 170 490 l18 70 -5 -170 -6 -170 -245 -692 c-244 -689 -245 -693 -272 -693
-17 0 -31 7 -35 18 -4 9 -99 271 -211 582 -113 311 -209 568 -213 572 -4 5
-113 -256 -242 -580 -221 -552 -237 -587 -261 -590 -23 -3 -28 3 -46 50 -11
29 -83 221 -161 427 l-141 373 0 494 0 494 -245 0 -245 0 0 -1065 0 -1065
1300 0 1300 0 0 1065 0 1065 -140 0 -140 0 0 -42 c-1 -43 -1 -43 -15 -17 -17
31 -79 59 -130 59 -31 0 -35 3 -35 25 l0 25 230 0 230 0 0 210 0 210 -1300 0
-1300 0 0 -210z"/>
</g>
</svg>
